# xmcd
# 
# Track frame offsets:
#     150
#     18313
#     37780
#     56575
#     75910
#     94419
#     110890
#     131005
#     150249
#     169436
#     190407
# 
# Disc length: 2849
# 
# Revision: 3
# Processed by: cddbd v1.5.2PL0 Copyright (c) Steve Scherf et al.
# Submitted via: fre:ac v1.0.17
# 
DISCID=870b1f0b
DTITLE=TLC - Greatest Hits
DYEAR=2009
DGENRE=R&B
TTITLE0=Unpretty
TTITLE1=Waterfalls
TTITLE2=Ain't 2 Proud 2 Beg
TTITLE3=Silly Ho
TTITLE4=What About Your Friends
TTITLE5=No Scrubs
TTITLE6=Creep
TTITLE7=Diggin' on You
TTITLE8=Kick Your Game
TTITLE9=Red Light Special
TTITLE10=Dear Lie
EXTD=
EXTT0=
EXTT1=
EXTT2=
EXTT3=
EXTT4=
EXTT5=
EXTT6=
EXTT7=
EXTT8=
EXTT9=
EXTT10=
PLAYORDER=
